<?xml version="1.0" encoding="UTF-8" standalone="no"?>
<svg
   xmlns:dc="http://purl.org/dc/elements/1.1/"
   xmlns:cc="http://creativecommons.org/ns#"
   xmlns:rdf="http://www.w3.org/1999/02/22-rdf-syntax-ns#"
   xmlns:svg="http://www.w3.org/2000/svg"
   xmlns="http://www.w3.org/2000/svg"
   xmlns:xlink="http://www.w3.org/1999/xlink"
   xmlns:sodipodi="http://sodipodi.sourceforge.net/DTD/sodipodi-0.dtd"
   xmlns:inkscape="http://www.inkscape.org/namespaces/inkscape"
   width="35.27869mm"
   height="6.3027329mm"
   viewBox="0 0 35.27869 6.3027329"
   version="1.1"
   id="svg8"
   inkscape:version="1.0.1 (0767f8302a, 2020-10-17)"
   sodipodi:docname="openbf-title.svg">
  <defs
     id="defs2">
    <linearGradient
       inkscape:collect="always"
       id="linearGradient901">
      <stop
         style="stop-color:#f9f9f9;stop-opacity:1"
         offset="0"
         id="stop897" />
      <stop
         style="stop-color:#000000;stop-opacity:1"
         offset="1"
         id="stop899" />
    </linearGradient>
    <linearGradient
       inkscape:collect="always"
       id="linearGradient885">
      <stop
         style="stop-color:#f9f9f9;stop-opacity:1"
         offset="0"
         id="stop881" />
      <stop
         style="stop-color:#000000;stop-opacity:0.99126542"
         offset="1"
         id="stop883" />
    </linearGradient>
    <rect
       x="7.2881532"
       y="83.536591"
       width="187.55257"
       height="102.80742"
       id="rect835" />
    <linearGradient
       inkscape:collect="always"
       xlink:href="#linearGradient901"
       id="linearGradient887"
       x1="88.008583"
       y1="106.57784"
       x2="87.807167"
       y2="109.49741"
       gradientUnits="userSpaceOnUse"
       gradientTransform="matrix(0.99118615,0,0,0.99118615,0.46221882,0.91025463)" />
    <linearGradient
       inkscape:collect="always"
       xlink:href="#linearGradient885"
       id="linearGradient895"
       x1="88.008583"
       y1="106.57784"
       x2="87.877579"
       y2="103.53847"
       gradientUnits="userSpaceOnUse"
       gradientTransform="matrix(0.99118615,0,0,0.99118615,0.46221882,0.91025463)" />
  </defs>
  <sodipodi:namedview
     id="base"
     pagecolor="#ffffff"
     bordercolor="#666666"
     borderopacity="1.0"
     inkscape:pageopacity="0.0"
     inkscape:pageshadow="2"
     inkscape:zoom="2.8"
     inkscape:cx="143.09339"
     inkscape:cy="33.932788"
     inkscape:document-units="mm"
     inkscape:current-layer="layer1"
     inkscape:document-rotation="0"
     showgrid="false"
     fit-margin-top="0"
     fit-margin-left="0"
     fit-margin-right="0"
     fit-margin-bottom="0"
     inkscape:snap-global="false"
     inkscape:window-width="1294"
     inkscape:window-height="704"
     inkscape:window-x="72"
     inkscape:window-y="27"
     inkscape:window-maximized="1" />
  <metadata
     id="metadata5">
    <rdf:RDF>
      <cc:Work
         rdf:about="">
        <dc:format>image/svg+xml</dc:format>
        <dc:type
           rdf:resource="http://purl.org/dc/dcmitype/StillImage" />
        <dc:title></dc:title>
      </cc:Work>
    </rdf:RDF>
  </metadata>
  <g
     inkscape:label="Layer 1"
     inkscape:groupmode="layer"
     id="layer1"
     transform="translate(-52.442494,-103.27581)">
    <path
       id="path851"
       style="font-style:normal;font-variant:normal;font-weight:bold;font-stretch:normal;font-size:25.4px;line-height:1.25;font-family:sans-serif;-inkscape-font-specification:'sans-serif Bold';white-space:pre;fill:url(#linearGradient895);fill-opacity:1;stroke:url(#linearGradient887);stroke-width:0.311843"
       d="m 55.568722,103.43173 c -0.925642,0 -1.652749,0.26558 -2.181319,0.79672 -0.525991,0.53116 -0.788987,1.26471 -0.788987,2.20066 0,0.93338 0.262996,1.66563 0.788987,2.1968 0.52857,0.53114 1.255677,0.79671 2.181319,0.79671 0.928221,0 1.655327,-0.26557 2.181319,-0.79671 0.525992,-0.53117 0.788987,-1.26342 0.788987,-2.1968 0,-0.93595 -0.262995,-1.6695 -0.788987,-2.20066 -0.525992,-0.53114 -1.253098,-0.79672 -2.181319,-0.79672 z m 4.091907,0.10443 v 5.77431 h 1.48902 v -2.00342 h 0.982367 c 0.734841,0 1.29822,-0.16243 1.690136,-0.48731 0.394493,-0.32745 0.59174,-0.79414 0.59174,-1.40007 0,-0.60334 -0.197247,-1.06745 -0.59174,-1.39233 -0.391916,-0.32745 -0.955295,-0.49118 -1.690136,-0.49118 z m 5.801379,0 v 5.77431 h 4.103507 1.311114 1.411668 v -3.96042 l 2.100101,3.96042 h 1.66306 v -4.87751 h 1.461949 v 4.87751 h 2.471387 c 0.76836,0 1.340764,-0.13666 1.717209,-0.40997 0.376444,-0.2733 0.564666,-0.68842 0.564666,-1.24536 0,-0.36356 -0.08767,-0.67038 -0.262995,-0.92049 -0.175332,-0.25011 -0.422856,-0.42157 -0.742577,-0.51438 0.250105,-0.0953 0.440906,-0.24109 0.572403,-0.43705 0.1315,-0.19853 0.197247,-0.43832 0.197247,-0.71937 0,-0.53373 -0.180487,-0.92178 -0.541462,-1.16413 -0.358395,-0.24237 -0.938536,-0.36356 -1.740413,-0.36356 H 77.513407 76.051458 74.63979 v 3.96041 l -2.100098,-3.96041 h -1.663063 v 4.64884 h -1.311114 -2.614486 v -1.32272 h 2.378564 v -1.12547 h -2.378564 v -1.07518 h 2.5294 v -1.12547 z m 18.084834,0 v 5.77431 h 1.48902 v -2.44819 h 2.378564 v -1.12547 h -2.378564 v -1.07518 h 2.5294 v -1.12547 z m -27.97812,0.97463 c 0.456376,0 0.809615,0.1676 1.05972,0.50278 0.250103,0.33519 0.375155,0.80705 0.375155,1.41554 0,0.60593 -0.125052,1.07648 -0.375155,1.41167 -0.250105,0.3352 -0.603344,0.50279 -1.05972,0.50279 -0.453797,0 -0.805746,-0.16759 -1.055851,-0.50279 -0.250103,-0.33519 -0.375155,-0.80574 -0.375155,-1.41167 0,-0.60849 0.125052,-1.08035 0.375155,-1.41554 0.250105,-0.33518 0.602054,-0.50278 1.055851,-0.50278 z m 23.433704,0.0386 h 0.823796 c 0.234634,0 0.412544,0.0528 0.533729,0.15858 0.121183,0.10313 0.181773,0.25396 0.181773,0.4525 0,0.20112 -0.06059,0.35324 -0.181773,0.45638 -0.121185,0.10313 -0.299095,0.1547 -0.533729,0.1547 h -0.823796 z m -17.852777,0.0657 h 0.823796 c 0.28878,0 0.51181,0.0696 0.669092,0.20884 0.157282,0.13923 0.235924,0.33777 0.235924,0.59561 0,0.25784 -0.07864,0.45767 -0.235924,0.59948 -0.157282,0.13922 -0.380312,0.20885 -0.669092,0.20885 h -0.823796 z m 17.852777,2.16971 h 0.874075 c 0.301671,0 0.527283,0.0631 0.676827,0.18952 0.149548,0.12375 0.224321,0.31069 0.224321,0.56079 0,0.25527 -0.07606,0.44607 -0.228188,0.5724 -0.149547,0.12634 -0.373865,0.18952 -0.67296,0.18952 h -0.874075 z" />
  </g>
</svg>
